<svg width="1148" height="1497" viewBox="0 0 1148 1497" fill="none" xmlns="http://www.w3.org/2000/svg">
<path d="M1067.75 534.478L1043.65 1263.93C1041.6 1326.4 1015.28 1385.61 970.285 1429C925.289 1472.39 865.157 1496.53 802.65 1496.31H344.75C282.285 1496.53 222.187 1472.42 177.198 1429.09C132.209 1385.75 105.865 1326.6 103.75 1264.17L79.6505 534.478C79.1232 518.499 84.9652 502.965 95.8914 491.293C106.818 479.621 121.933 472.767 137.912 472.24C153.892 471.713 169.426 477.555 181.098 488.481C192.77 499.407 199.623 514.523 200.151 530.502L224.25 1260.13C225.451 1291.28 238.674 1320.75 261.143 1342.35C283.613 1363.96 313.58 1376.01 344.75 1375.99H802.65C833.861 1376.01 863.863 1363.92 886.339 1342.27C908.815 1320.61 922.011 1291.08 923.15 1259.89L947.251 530.502C947.778 514.523 954.631 499.407 966.303 488.481C977.975 477.555 993.509 471.713 1009.49 472.24C1025.47 472.767 1040.58 479.621 1051.51 491.293C1062.44 502.965 1068.28 518.499 1067.75 534.478ZM1147.46 291.731C1147.46 307.71 1141.11 323.035 1129.81 334.334C1118.52 345.633 1103.19 351.981 1087.21 351.981H60.25C44.2707 351.981 28.9459 345.633 17.6468 334.334C6.34773 323.035 0 307.71 0 291.731C0 275.752 6.34773 260.427 17.6468 249.128C28.9459 237.829 44.2707 231.481 60.25 231.481H247.025C266.115 231.533 284.541 224.48 298.718 211.695C312.895 198.91 321.808 181.308 323.723 162.314C328.169 117.758 349.044 76.4537 382.28 46.4478C415.516 16.4419 458.732 -0.115879 503.509 0.000610506H643.892C688.669 -0.115879 731.885 16.4419 765.121 46.4478C798.357 76.4537 819.232 117.758 823.678 162.314C825.593 181.308 834.506 198.91 848.683 211.695C862.86 224.48 881.286 231.533 900.376 231.481H1087.15C1103.13 231.481 1118.46 237.829 1129.75 249.128C1141.05 260.427 1147.4 275.752 1147.4 291.731H1147.46ZM428.317 231.481H719.204C711.287 213.391 706.109 194.222 703.841 174.605C702.348 159.754 695.396 145.986 684.331 135.967C673.267 125.949 658.878 120.395 643.952 120.38H503.57C488.644 120.395 474.254 125.949 463.19 135.967C452.126 145.986 445.174 159.754 443.681 174.605C441.393 194.225 436.195 213.394 428.257 231.481H428.317ZM488.989 1144.33V631.3C488.989 615.321 482.641 599.996 471.342 588.697C460.043 577.398 444.718 571.05 428.739 571.05C412.76 571.05 397.435 577.398 386.136 588.697C374.837 599.996 368.489 615.321 368.489 631.3V1144.57C368.489 1160.55 374.837 1175.87 386.136 1187.17C397.435 1198.47 412.76 1204.82 428.739 1204.82C444.718 1204.82 460.043 1198.47 471.342 1187.17C482.641 1175.87 488.989 1160.55 488.989 1144.57V1144.33ZM779.033 1144.33V631.3C779.033 615.321 772.685 599.996 761.386 588.697C750.087 577.398 734.762 571.05 718.783 571.05C702.803 571.05 687.478 577.398 676.179 588.697C664.88 599.996 658.533 615.321 658.533 631.3V1144.57C658.533 1160.55 664.88 1175.87 676.179 1187.17C687.478 1198.47 702.803 1204.82 718.783 1204.82C734.762 1204.82 750.087 1198.47 761.386 1187.17C772.685 1175.87 779.033 1160.55 779.033 1144.57V1144.33Z" fill="white"/>
</svg>
