<svg width="4599" height="4593" viewBox="0 0 4599 4593" fill="none" xmlns="http://www.w3.org/2000/svg">
<path d="M672 4592.92H3552C3730.5 4592.42 3901.51 4521.11 4027.5 4394.66C4153.48 4268.2 4224.15 4096.93 4224 3918.43V2471.32C4224 2420.4 4203.77 2371.57 4167.77 2335.56C4131.76 2299.55 4082.92 2279.32 4032 2279.32C3981.08 2279.32 3932.24 2299.55 3896.24 2335.56C3860.23 2371.57 3840 2420.4 3840 2471.32V3918.43C3840.26 3995.12 3810.07 4068.78 3756.08 4123.24C3702.09 4177.7 3628.69 4208.52 3552 4208.92H672C595.31 4208.52 521.914 4177.7 467.92 4123.24C413.926 4068.78 383.745 3995.12 384 3918.43V1043.42C383.745 966.73 413.926 893.071 467.92 838.609C521.914 784.147 595.31 753.331 672 752.925H2112C2162.92 752.925 2211.76 732.696 2247.76 696.689C2283.77 660.682 2304 611.846 2304 560.925C2304 510.003 2283.77 461.167 2247.76 425.16C2211.76 389.153 2162.92 368.925 2112 368.925H672C493.499 369.433 322.49 440.739 196.504 567.193C70.518 693.647 -0.153042 864.919 0.000248853 1043.42V3918.43C-0.153042 4096.93 70.518 4268.2 196.504 4394.66C322.49 4521.11 493.499 4592.42 672 4592.92V4592.92Z" fill="white"/>
<path d="M1815.36 2009.37L1663.87 2703.26C1657.02 2734.73 1658.19 2767.43 1667.28 2798.33C1676.37 2829.23 1693.09 2857.35 1715.9 2880.09C1739.03 2902.26 1767.16 2918.54 1797.91 2927.53C1828.65 2936.52 1861.12 2937.96 1892.54 2931.74L2584.9 2779.87C2620.85 2771.97 2653.77 2753.91 2679.74 2727.84L4429.63 977.949C4483.13 924.461 4525.57 860.959 4554.52 791.069C4583.47 721.179 4598.37 646.27 4598.37 570.621C4598.37 494.971 4583.47 420.062 4554.52 350.172C4525.57 280.282 4483.13 216.78 4429.63 163.293C4319.96 58.4867 4174.1 0 4022.4 0C3870.7 0 3724.84 58.4867 3615.17 163.293L1867.97 1914.91C1841.74 1940.71 1823.48 1973.49 1815.36 2009.37ZM3886.66 434.973C3923.18 399.979 3971.82 380.443 4022.4 380.443C4072.99 380.443 4121.62 399.979 4158.14 434.973C4193.66 471.189 4213.56 519.893 4213.56 570.621C4213.56 621.348 4193.66 670.052 4158.14 706.269L4022.4 842.013L3750.91 570.525L3886.66 434.973ZM2177.86 2146.46L3478.46 842.589L3747.26 1112.73L2446.08 2416.99L2101.44 2492.64L2177.86 2146.46Z" fill="white"/>
</svg>
